<svg xmlns="http://www.w3.org/2000/svg" width="1200" height="800" viewBox="0 0 1200 800" fill="none">
  <defs>
    <linearGradient id="bg" x1="0" y1="0" x2="1" y2="1">
      <stop offset="0" stop-color="#1C203A"/>
      <stop offset="1" stop-color="#0E0F18"/>
    </linearGradient>
    <linearGradient id="stage" x1="0" y1="0" x2="1" y2="1">
      <stop offset="0" stop-color="#5A30FF"/>
      <stop offset="1" stop-color="#1EB0FF"/>
    </linearGradient>
    <filter id="shadow" x="0" y="0" width="1200" height="800" filterUnits="userSpaceOnUse">
      <feDropShadow dx="0" dy="14" stdDeviation="24" flood-color="#000" flood-opacity="0.4"/>
    </filter>
  </defs>
  <rect width="1200" height="800" fill="url(#bg)"/>
  <g opacity="0.5">
    <circle cx="122" cy="116" r="4" fill="#fff"/>
    <circle cx="172" cy="164" r="3" fill="#fff"/>
    <circle cx="1056" cy="108" r="4" fill="#fff"/>
    <circle cx="990" cy="156" r="3" fill="#fff"/>
    <circle cx="1090" cy="190" r="2.5" fill="#fff"/>
  </g>
  <g opacity="0.65">
    <path d="M70 576h1060" stroke="#58607A" stroke-width="2"/>
    <path d="M120 540h960" stroke="#58607A" stroke-width="2" stroke-dasharray="10 8"/>
  </g>
  <g filter="url(#shadow)">
    <rect x="140" y="164" width="920" height="378" rx="28" fill="url(#stage)"/>
    <rect x="180" y="204" width="840" height="298" rx="22" fill="#121525" opacity="0.35"/>
  </g>
  <g>
    <circle cx="242" cy="348" r="64" fill="#FFB800" opacity="0.9"/>
    <circle cx="958" cy="348" r="64" fill="#FFB800" opacity="0.9"/>
    <circle cx="242" cy="348" r="92" stroke="#FFB800" stroke-opacity="0.24" stroke-width="18"/>
    <circle cx="958" cy="348" r="92" stroke="#FFB800" stroke-opacity="0.24" stroke-width="18"/>
  </g>
  <text x="600" y="280" text-anchor="middle" font-family="Arial, sans-serif" font-size="26" letter-spacing="7" font-weight="700" fill="#DDE6FF">SỰ KIỆN • BACKDROP • SÂN KHẤU</text>
  <text x="600" y="372" text-anchor="middle" font-family="Arial, sans-serif" font-size="64" font-weight="800" fill="#fff">GRAND EVENT</text>
  <text x="600" y="426" text-anchor="middle" font-family="Arial, sans-serif" font-size="28" font-weight="700" fill="#F8D85A">Thiết kế backdrop – cổng chào – bộ nhận diện sân khấu</text>
  <g>
    <rect x="318" y="456" width="564" height="12" rx="6" fill="#95C6FF" opacity="0.35"/>
    <rect x="408" y="490" width="384" height="12" rx="6" fill="#95C6FF" opacity="0.25"/>
  </g>
  <g fill="#3F4D8B">
    <rect x="176" y="542" width="848" height="30" rx="15"/>
    <rect x="232" y="570" width="736" height="18" rx="9" fill="#252A45"/>
  </g>
  <text x="84" y="742" font-family="Arial, sans-serif" font-size="20" font-weight="700" fill="#9098B0">Hình minh hoạ cho hạng mục backdrop và biển sự kiện quy mô lớn.</text>
</svg>
